<?xml version="1.0" encoding="utf-8"?>
<!-- Generator: Adobe Illustrator 23.1.1, SVG Export Plug-In . SVG Version: 6.00 Build 0)  -->
<svg version="1.1" id="Capa_1" xmlns="http://www.w3.org/2000/svg" xmlns:xlink="http://www.w3.org/1999/xlink" x="0px" y="0px"
	 viewBox="0 0 150 90" style="enable-background:new 0 0 150 90;" xml:space="preserve">
<style type="text/css">
	.st0{fill:#1D1D1B;}
</style>
<g>
	<g>
		<path class="st0" d="M56.48,71.56h2.34v3.49l2.25-3.49h2.35l-2.11,3.09l2.63,5.29h-2.77l-1.52-3.24l-0.82,1.17v2.07h-2.34V71.56z"
			/>
		<path class="st0" d="M63.96,71.56h2.62v8.38h-2.62V71.56z"/>
		<path class="st0" d="M68.21,79.09c-0.84-0.8-1.29-1.93-1.29-3.35c0-1.42,0.45-2.54,1.3-3.36c0.7-0.66,1.6-0.99,2.67-0.99
			c1.07,0,1.97,0.33,2.67,0.99c0.86,0.81,1.29,1.93,1.29,3.36c0,1.42-0.43,2.56-1.28,3.35c-0.71,0.68-1.6,1-2.68,1
			C69.82,80.09,68.92,79.75,68.21,79.09z M72.13,75.73c0-1.58-0.43-2.39-1.25-2.39c-0.84,0-1.25,0.8-1.25,2.39
			c0,1.6,0.41,2.39,1.25,2.39C71.69,78.12,72.13,77.32,72.13,75.73z"/>
		<path class="st0" d="M76.65,71.56H78l3.95,6.9v-6.9h0.84v8.38h-1.03l-4.29-7.46v7.46h-0.83V71.56z"/>
		<path class="st0" d="M86.68,80.1c-1.66,0-2.77-1.25-2.77-3.27c0-1.98,1.15-3.27,2.77-3.27c1.67,0,2.74,1.21,2.74,3.21
			c0,0.05,0,0.09,0,0.13h-4.52c0,0.01,0,0.02,0,0.03c0,1.51,0.72,2.38,1.85,2.38c0.77,0,1.39-0.44,1.7-1.21l0.88,0.15
			C88.9,79.46,87.97,80.1,86.68,80.1z M88.42,76.23c-0.05-1.2-0.69-1.89-1.69-1.89c-1.01,0-1.65,0.66-1.81,1.89H88.42z"/>
		<path class="st0" d="M90.69,74.41H89.6v-0.68h1.09v-1.47l0.93-0.1v1.57h1.47v0.68h-1.47v3.25c0,1.16,0.11,1.65,1.05,1.65
			c0.19,0,0.41-0.01,0.64-0.07v0.77c-0.25,0.06-0.52,0.1-0.77,0.1c-0.73,0-1.24-0.22-1.59-0.73c-0.25-0.36-0.25-0.94-0.25-1.74
			V74.41z"/>
		<path class="st0" d="M93.11,73.73h0.92l1.37,5l1.29-5h0.71l1.37,5l1.45-5h0.82l-1.88,6.21h-0.81l-1.34-4.91l-1.25,4.91h-0.83
			L93.11,73.73z"/>
		<path class="st0" d="M101.11,76.83c0-2.01,1.13-3.27,2.78-3.27c1.65,0,2.8,1.27,2.8,3.27c0,1.99-1.15,3.27-2.8,3.27
			C102.25,80.1,101.11,78.82,101.11,76.83z M105.68,76.83c0-1.58-0.71-2.5-1.79-2.5c-1.08,0-1.77,0.91-1.77,2.5
			c0,1.58,0.71,2.5,1.77,2.5C104.95,79.33,105.68,78.4,105.68,76.83z"/>
		<path class="st0" d="M107.68,73.73h0.88v1.39c0.37-1.05,0.95-1.57,1.81-1.57c0.11,0,0.22,0.01,0.34,0.02v0.93
			c-0.06,0-0.1,0-0.15,0c-1.18,0-1.94,0.88-1.94,2.32v3.12h-0.93V73.73z"/>
		<path class="st0" d="M111.15,71.56h0.91v5.32l2.8-3.15h1l-1.91,2.03l2.21,4.18h-0.98l-1.85-3.52l-1.28,1.36v2.16h-0.91V71.56z"/>
		<path class="st0" d="M116.86,78.15c0.25,0.76,0.91,1.19,1.76,1.19c0.87,0,1.4-0.45,1.4-1.05c0-0.76-0.65-0.83-1.79-1.11
			c-1.35-0.32-1.98-0.72-1.98-1.76c0-1.05,0.87-1.86,2.22-1.86c1.14,0,1.94,0.56,2.24,1.57l-0.86,0.18
			c-0.19-0.64-0.67-0.98-1.42-0.98c-0.79,0-1.26,0.38-1.26,0.98c0,0.77,0.7,0.78,1.89,1.09c1.29,0.33,1.91,0.82,1.91,1.77
			c0,1.11-0.94,1.93-2.37,1.93c-1.37,0-2.31-0.66-2.6-1.78L116.86,78.15z"/>
	</g>
	<polygon class="st0" points="32.34,66.38 50.81,66.38 32.47,40.05 14.01,40.05 	"/>
	<polygon class="st0" points="50.29,10.43 31.83,10.43 14,36.05 32.46,36.05 	"/>
	<rect x="55.79" y="40.05" class="st0" width="17.7" height="25.97"/>
	<rect x="55.79" y="10.07" class="st0" width="17.7" height="25.98"/>
	<path class="st0" d="M107.44,50.76c-6.34,0-11.6-4.64-12.56-10.71H78.82c1.03,14.92,13.44,26.7,28.62,26.7
		c15.17,0,27.59-11.78,28.62-26.7h-16.07C119.03,46.12,113.78,50.76,107.44,50.76z"/>
	<path class="st0" d="M107.44,25.33c6.34,0,11.6,4.64,12.55,10.72h16.07c-1.03-14.92-13.45-26.7-28.62-26.7
		c-15.17,0-27.59,11.78-28.62,26.7h16.06C95.84,29.97,101.09,25.33,107.44,25.33z"/>
	<g>
		<path class="st0" d="M123.63,70c0.33,0.33,0.51,0.78,0.51,1.26c0,0.49-0.18,0.92-0.52,1.25c-0.35,0.35-0.8,0.53-1.27,0.53
			c-0.47,0-0.92-0.19-1.26-0.53c-0.34-0.34-0.53-0.78-0.53-1.25c0-0.47,0.19-0.93,0.54-1.27c0.33-0.33,0.76-0.51,1.25-0.51
			C122.85,69.47,123.29,69.65,123.63,70z M123.48,70.15c-0.3-0.31-0.69-0.46-1.12-0.46c-0.43,0-0.81,0.15-1.1,0.45
			c-0.31,0.31-0.48,0.71-0.48,1.13c0,0.41,0.16,0.8,0.46,1.11c0.3,0.3,0.69,0.46,1.1,0.46c0.42,0,0.82-0.16,1.13-0.46
			c0.29-0.29,0.46-0.67,0.46-1.1C123.93,70.84,123.77,70.44,123.48,70.15z M123.26,70.77c0,0.28-0.18,0.49-0.48,0.54l0.46,0.94
			h-0.39l-0.43-0.89h-0.43v0.89h-0.34v-2.04h0.76C122.97,70.21,123.26,70.39,123.26,70.77z M121.99,70.43v0.7h0.36
			c0.38,0,0.55-0.08,0.55-0.34c0-0.27-0.18-0.36-0.56-0.36H121.99z"/>
	</g>
</g>
</svg>
